<?xml version="1.0" encoding="UTF-8"?>
<svg width="40px" height="40px" viewBox="0 0 40 40" version="1.1" xmlns="http://www.w3.org/2000/svg" xmlns:xlink="http://www.w3.org/1999/xlink">
    <!-- Generator: Sketch 48.1 (47250) - http://www.bohemiancoding.com/sketch -->
    <title>message-bg</title>
    <desc>Created with Sketch.</desc>
    <defs></defs>
    <g id="Page-1" stroke="none" stroke-width="1" fill="none" fill-rule="evenodd">
        <g id="message-bg" fill-rule="nonzero">
            <circle id="Oval" fill="#1B6AC9" cx="20" cy="20" r="20"></circle>
            <path d="M28.0459331,10 L12.1024388,10 C11.0512194,10 10,10.7246377 10,11.9927536 C10,11.9927536 10,11.9927536 10,11.9927536 L10,31.7391304 L14.0296744,27.5724638 L28.0459331,27.5724638 C29.0971526,27.5724638 29.9731687,26.6666667 29.9731687,25.5797101 L29.9731687,11.9927536 C30.148372,11.0869565 29.447559,10.1811594 28.3963396,10 C28.3963396,10 28.2211364,10 28.0459331,10 Z M26.469104,23.5869565 L13.6792679,23.5869565 L13.6792679,22.1376812 L26.6443073,22.1376812 L26.6443073,23.5869565 L26.469104,23.5869565 Z M26.469104,19.4202899 L13.6792679,19.4202899 L13.6792679,18.1521739 L26.6443073,18.1521739 L26.6443073,19.4202899 L26.469104,19.4202899 Z M26.469104,15.4347826 L13.6792679,15.4347826 L13.6792679,14.1666667 L26.6443073,14.1666667 L26.6443073,15.4347826 L26.469104,15.4347826 Z" id="_Compound_Path_" fill="#FFFFFF"></path>
        </g>
    </g>
</svg>